<svg width="24" height="24" viewBox="0 0 24 24" fill="none" xmlns="http://www.w3.org/2000/svg">
<path d="M7.19702 8.53033C7.48991 8.23744 7.48991 7.76256 7.19702 7.46967C6.90412 7.17678 6.42925 7.17678 6.13636 7.46967L2.13646 11.4696C2.06455 11.5415 2.0102 11.6245 1.9736 11.7129C1.93693 11.8013 1.91669 11.8983 1.91669 12C1.91669 12.1017 1.93693 12.1987 1.9736 12.2871C2.0102 12.3755 2.06445 12.4584 2.13636 12.5303L6.13636 16.5303C6.42925 16.8232 6.90412 16.8232 7.19702 16.5303C7.48991 16.2374 7.48991 15.7626 7.19702 15.4697L4.47735 12.75H10.6667C11.0809 12.75 11.4167 12.4142 11.4167 12C11.4167 11.5858 11.0809 11.25 10.6667 11.25H4.47735L7.19702 8.53033Z" fill="#9CA3AF"/>
<path d="M17.8637 7.46967C17.5708 7.17678 17.0959 7.17678 16.803 7.46967C16.5101 7.76256 16.5101 8.23744 16.803 8.53033L19.5227 11.25H13.3334C12.9191 11.25 12.5834 11.5858 12.5834 12C12.5834 12.4142 12.9191 12.75 13.3334 12.75H19.5227L16.803 15.4697C16.5101 15.7626 16.5101 16.2374 16.803 16.5303C17.0959 16.8232 17.5708 16.8232 17.8637 16.5303L21.863 12.531L21.8686 12.5254C21.938 12.4547 21.9907 12.3735 22.0264 12.2871C22.0631 12.1987 22.0834 12.1017 22.0834 12C22.0834 11.8983 22.0631 11.8013 22.0264 11.7129C21.9907 11.6265 21.938 11.5453 21.8686 11.4746L21.863 11.469L17.8637 7.46967Z" fill="#9CA3AF"/>
</svg>
