<svg width="36" height="36" viewBox="0 0 36 36" fill="none" xmlns="http://www.w3.org/2000/svg">
<path d="M31.335 7.76998V24.72C31.335 27.69 28.92 30.105 25.95 30.105C22.995 30.105 20.565 27.69 20.565 24.72C20.565 21.765 22.995 19.35 25.95 19.35C27.21 19.35 28.335 19.785 29.25 20.505V11.58L15.435 15.51V27.615C15.435 30.585 13.005 33 10.05 33C7.07998 33 4.66498 30.585 4.66498 27.615C4.66498 24.66 7.07998 22.245 10.05 22.245C11.295 22.245 12.42 22.68 13.335 23.385V10.125C13.335 7.91998 14.67 6.20998 16.785 5.63998L25.455 3.26998C27.21 2.78998 28.695 2.95498 29.745 3.76498C30.81 4.55998 31.335 5.90998 31.335 7.76998Z" fill="#9CA3AF"/>
</svg>
