<svg width="24" height="24" viewBox="0 0 24 24" fill="none" xmlns="http://www.w3.org/2000/svg">
<path fill-rule="evenodd" clip-rule="evenodd" d="M7.98035 3.53579L7.76523 4.81675C6.83201 4.86712 5.89884 4.93943 4.96572 5.03367L2.92681 5.23356C2.51458 5.27397 2.21316 5.64092 2.25357 6.05316C2.29399 6.4654 2.66093 6.76682 3.07317 6.7264L5.11317 6.52641L5.11537 6.52618C7.07045 6.3287 9.02529 6.22998 10.98 6.22998C14.2946 6.22998 17.6199 6.39869 20.926 6.72633C21.3382 6.76717 21.7055 6.46614 21.7463 6.05394C21.7872 5.64175 21.4862 5.27448 21.074 5.23364C19.4673 5.07442 17.8559 4.95217 16.243 4.868C16.242 4.8603 16.2408 4.85258 16.2395 4.84486L16.0199 3.54711L16.0105 3.48891C15.9447 3.08006 15.8462 2.46776 15.439 1.99845C14.9677 1.4554 14.2451 1.25 13.31 1.25H10.69C9.76609 1.25 9.04279 1.44012 8.56873 1.97769C8.16203 2.43887 8.06102 3.04899 7.99216 3.46487L7.98035 3.53579ZM9.45958 3.78456L9.29681 4.75377C9.85786 4.73791 10.4189 4.72998 10.98 4.72998C12.2227 4.72998 13.4667 4.75334 14.7105 4.79954L14.5398 3.79069C14.4561 3.27767 14.4032 3.09352 14.306 2.98155C14.2523 2.9196 14.0648 2.75 13.31 2.75H10.69C9.9239 2.75 9.7422 2.91488 9.69376 2.96981C9.60164 3.07427 9.54966 3.24976 9.45958 3.78456Z" fill="#9CA3AF"/>
<path d="M5.8985 9.0917C5.87182 8.67835 5.5151 8.36489 5.10175 8.39157C4.68839 8.41825 4.37493 8.77497 4.40162 9.18833L5.05162 19.2583L5.05189 19.2624L5.05322 19.2814C5.07957 19.6577 5.10854 20.0714 5.18607 20.4564C5.26646 20.8555 5.40816 21.2768 5.69526 21.6506C6.29643 22.4333 7.31949 22.75 8.79006 22.75H15.2101C16.6806 22.75 17.7037 22.4333 18.3049 21.6506C18.592 21.2768 18.7337 20.8555 18.814 20.4564C18.8916 20.0714 18.9205 19.6577 18.9469 19.2814L18.9482 19.2624L18.9485 19.2583L19.5985 9.18833C19.6252 8.77497 19.3117 8.41825 18.8984 8.39157C18.485 8.36489 18.1283 8.67835 18.1016 9.0917L17.4519 19.1576L17.4517 19.1598C17.4235 19.5625 17.3996 19.8818 17.3436 20.1602C17.289 20.4314 17.2132 20.6095 17.1153 20.7369C16.9464 20.9567 16.5295 21.25 15.2101 21.25H8.79006C7.47062 21.25 7.05369 20.9567 6.88486 20.7369C6.78696 20.6095 6.71115 20.4314 6.65655 20.1602C6.60048 19.8818 6.57659 19.5624 6.54837 19.1596L5.8985 9.0917Z" fill="#9CA3AF"/>
<path d="M9.58007 16.5C9.58007 16.0858 9.91586 15.75 10.3301 15.75H13.6601C14.0743 15.75 14.4101 16.0858 14.4101 16.5C14.4101 16.9142 14.0743 17.25 13.6601 17.25H10.3301C9.91586 17.25 9.58007 16.9142 9.58007 16.5Z" fill="#9CA3AF"/>
<path d="M9.49999 11.75C9.08578 11.75 8.74999 12.0858 8.74999 12.5C8.74999 12.9142 9.08578 13.25 9.49999 13.25H14.5C14.9142 13.25 15.25 12.9142 15.25 12.5C15.25 12.0858 14.9142 11.75 14.5 11.75H9.49999Z" fill="#9CA3AF"/>
</svg>
