<svg width="24" height="24" viewBox="0 0 24 24" fill="none" xmlns="http://www.w3.org/2000/svg">
<path d="M9.53033 13.9597C9.23744 13.6668 8.76256 13.6668 8.46967 13.9597L12 18.24C11.8064 18.24 11.6206 18.1652 11.4811 18.0315C11.6158 18.1606 11.7986 18.24 12 18.24C12.1989 18.24 12.3897 18.161 12.5303 18.0203L15.5303 15.0203C15.8232 14.7274 15.8232 14.2526 15.5303 13.9597C15.2374 13.6668 14.7626 13.6668 14.4697 13.9597L12.75 15.6793L12.75 9.48999C12.75 9.07578 12.4142 8.73999 12 8.73999C11.5858 8.73999 11.25 9.07578 11.25 9.48999L11.25 15.6793L9.53033 13.9597Z" fill="#9CA3AF"/>
<path d="M18.2377 6.77869C14.1934 5.42712 9.80657 5.42712 5.76228 6.77868C5.36942 6.90997 5.15738 7.33488 5.28867 7.72773C5.41996 8.12059 5.84486 8.33263 6.23772 8.20134C9.97343 6.9529 14.0266 6.95291 17.7623 8.20134C18.1551 8.33263 18.58 8.12059 18.7113 7.72773C18.8426 7.33488 18.6306 6.90997 18.2377 6.77869Z" fill="#9CA3AF"/>
<path fill-rule="evenodd" clip-rule="evenodd" d="M9 1.25C6.42603 1.25 4.42914 1.7602 3.09467 3.09467C1.7602 4.42914 1.25 6.42603 1.25 9V15C1.25 17.574 1.7602 19.5709 3.09467 20.9053C4.42914 22.2398 6.42603 22.75 9 22.75H15C17.574 22.75 19.5709 22.2398 20.9053 20.9053C22.2398 19.5709 22.75 17.574 22.75 15V9C22.75 6.42603 22.2398 4.42914 20.9053 3.09467C19.5709 1.7602 17.574 1.25 15 1.25H9ZM2.75 9C2.75 6.57397 3.2398 5.07086 4.15533 4.15533C5.07086 3.2398 6.57397 2.75 9 2.75L15 2.75C17.426 2.75 18.9291 3.2398 19.8447 4.15533C20.7602 5.07086 21.25 6.57397 21.25 9V15C21.25 17.426 20.7602 18.9291 19.8447 19.8447C18.9291 20.7602 17.426 21.25 15 21.25H9C6.57397 21.25 5.07086 20.7602 4.15533 19.8447C3.2398 18.9291 2.75 17.426 2.75 15L2.75 9Z" fill="#9CA3AF"/>
</svg>
