<svg width="36" height="36" viewBox="0 0 36 36" fill="none" xmlns="http://www.w3.org/2000/svg">
<path d="M26.34 3H9.615C5.97 3 3 5.97 3 9.615V19.365V19.665C3 23.325 5.97 26.28 9.615 26.28H15.375C16.2 26.28 16.875 26.955 16.875 27.78V29.235C16.875 30.06 16.2 30.735 15.375 30.735H11.745C11.13 30.735 10.62 31.245 10.62 31.86C10.62 32.475 11.115 33 11.745 33H24.27C24.885 33 25.395 32.49 25.395 31.875C25.395 31.26 24.885 30.75 24.27 30.75H20.64C19.815 30.75 19.14 30.075 19.14 29.25V27.795C19.14 26.97 19.815 26.295 20.64 26.295H26.355C30.015 26.295 32.97 23.325 32.97 19.68V19.38V9.63C32.955 5.97 29.985 3 26.34 3Z" fill="#9CA3AF"/>
</svg>
