<svg width="36" height="36" viewBox="0 0 36 36" fill="none" xmlns="http://www.w3.org/2000/svg">
<path d="M31.0832 13.875C31.7755 13.875 32.2536 13.1864 31.9076 12.5867C30.5245 10.1901 27.9359 8.58 24.975 8.58H20.79C19.92 8.58 19.86 8.505 19.395 7.89L17.295 5.1C16.32 3.795 15.555 3 13.11 3H9.63C5.97 3 3 5.97 3 9.63V12.875C3 13.4273 3.44772 13.875 4 13.875H31.0832Z" fill="white"/>
<path d="M32.9734 17.1212C32.9715 16.5703 32.5243 16.1246 31.9734 16.1246L3.99999 16.125C3.44771 16.125 3 16.5727 3 17.125V24.975C3 29.4 6.6 33 11.025 33H24.975C29.4 33 33 29.4 33 24.975L32.9734 17.1212Z" fill="white"/>
</svg>
