<svg width="24" height="24" viewBox="0 0 24 24" fill="none" xmlns="http://www.w3.org/2000/svg">
<path d="M12.7499 6C12.7499 5.58579 12.4142 5.25 11.9999 5.25C11.5857 5.25 11.2499 5.58579 11.2499 6V11.25H5.99994C5.58573 11.25 5.24994 11.5858 5.24994 12C5.24994 12.4142 5.58573 12.75 5.99994 12.75H11.2499V18C11.2499 18.4142 11.5857 18.75 11.9999 18.75C12.4142 18.75 12.7499 18.4142 12.7499 18V12.75H17.9999C18.4142 12.75 18.7499 12.4142 18.7499 12C18.7499 11.5858 18.4142 11.25 17.9999 11.25H12.7499V6Z" fill="#9CA3AF"/>
</svg>
