<svg width="24" height="24" viewBox="0 0 24 24" fill="none" xmlns="http://www.w3.org/2000/svg">
<path d="M18.1003 5.15961C17.8074 4.86672 17.3325 4.86672 17.0396 5.15961C16.7467 5.4525 16.7467 5.92738 17.0396 6.22027L18.3793 7.55998H8.86993C5.69572 7.55998 3.11993 10.1358 3.11993 13.31C3.11993 16.4842 5.69572 19.06 8.86993 19.06H16.8699C17.2841 19.06 17.6199 18.7242 17.6199 18.31C17.6199 17.8958 17.2841 17.56 16.8699 17.56H8.86993C6.52415 17.56 4.61993 15.6558 4.61993 13.31C4.61993 10.9642 6.52415 9.05998 8.86993 9.05998H18.2593L17.0396 10.2796C16.7467 10.5725 16.7467 11.0474 17.0396 11.3403C17.3325 11.6332 17.8074 11.6332 18.1003 11.3403L20.6603 8.78027C20.9532 8.48738 20.9532 8.0125 20.6603 7.71961L18.1003 5.15961Z" fill="#9CA3AF"/>
</svg>
