<svg width="36" height="36" viewBox="0 0 36 36" fill="none" xmlns="http://www.w3.org/2000/svg">
<path d="M3 13.4372V22.5641C3 24.4333 5.06565 25.6064 6.71429 24.6718L10.7389 22.3924L14.7635 20.1035C16.4122 19.1689 16.4122 16.8324 14.7635 15.8977L10.7389 13.6089L6.71429 11.3295C5.06565 10.3949 3 11.5584 3 13.4372Z" fill="#9CA3AF"/>
<path d="M33 13.4372V22.5641C33 24.4333 30.9344 25.6064 29.2857 24.6718L25.2611 22.3924L21.2365 20.1035C19.5878 19.1689 19.5878 16.8324 21.2365 15.8977L25.2611 13.6089L29.2857 11.3295C30.9344 10.3949 33 11.5584 33 13.4372Z" fill="#9CA3AF"/>
<path d="M17 7C17 6.44772 17.4477 6 18 6C18.5523 6 19 6.44772 19 7V29C19 29.5523 18.5523 30 18 30C17.4477 30 17 29.5523 17 29V7Z" fill="#9CA3AF"/>
</svg>
