<svg width="24" height="24" viewBox="0 0 24 24" fill="none" xmlns="http://www.w3.org/2000/svg">
<path fill-rule="evenodd" clip-rule="evenodd" d="M8.87416 9.08445C8.09734 10.0971 6.87491 10.75 5.5 10.75C3.15279 10.75 1.25 8.84721 1.25 6.5C1.25 4.15279 3.15279 2.25 5.5 2.25C7.84721 2.25 9.75 4.15279 9.75 6.5C9.75 6.92804 9.68672 7.3413 9.56901 7.73094L13.9983 11.0454L21.551 5.3993C21.8828 5.15129 22.3528 5.21918 22.6008 5.55094C22.8488 5.88269 22.7809 6.35269 22.4491 6.6007L15.2503 11.9823L22.4494 17.3695C22.7811 17.6177 22.8487 18.0877 22.6006 18.4194C22.3524 18.751 21.8824 18.8187 21.5507 18.5705L13.9979 12.9186L9.55913 16.2368C9.68318 16.6359 9.75 17.0601 9.75 17.5C9.75 19.8472 7.84721 21.75 5.5 21.75C3.15279 21.75 1.25 19.8472 1.25 17.5C1.25 15.1528 3.15279 13.25 5.5 13.25C6.86356 13.25 8.07714 13.8921 8.85482 14.8905L12.7459 11.9817L8.87416 9.08445ZM2.75 6.5C2.75 4.98122 3.98122 3.75 5.5 3.75C7.01878 3.75 8.25 4.98122 8.25 6.5C8.25 6.86363 8.17942 7.21077 8.05122 7.52848L8.04958 7.53067C7.98591 7.61576 7.94303 7.70996 7.92006 7.80718C7.45497 8.66641 6.54564 9.25 5.5 9.25C3.98122 9.25 2.75 8.01878 2.75 6.5ZM2.75 17.5C2.75 15.9812 3.98122 14.75 5.5 14.75C6.56867 14.75 7.49496 15.3596 7.95014 16.25C7.9646 16.2874 7.98224 16.3241 8.00309 16.3595C8.16165 16.707 8.25 17.0932 8.25 17.5C8.25 19.0188 7.01878 20.25 5.5 20.25C3.98122 20.25 2.75 19.0188 2.75 17.5Z" fill="#9CA3AF"/>
</svg>
