<svg width="24" height="24" viewBox="0 0 24 24" fill="none" xmlns="http://www.w3.org/2000/svg">
<path d="M6.96026 6.22027C7.25316 5.92738 7.25316 5.4525 6.96026 5.15961C6.66737 4.86672 6.1925 4.86672 5.8996 5.15961L3.3396 7.71961C3.04671 8.0125 3.04671 8.48738 3.3396 8.78027L5.8996 11.3403C6.1925 11.6332 6.66737 11.6332 6.96026 11.3403C7.25316 11.0474 7.25316 10.5725 6.96026 10.2796L5.74063 9.05998H15.13C17.4758 9.05998 19.38 10.9642 19.38 13.31C19.38 15.6558 17.4758 17.56 15.13 17.56H7.13003C6.71581 17.56 6.38003 17.8958 6.38003 18.31C6.38003 18.7242 6.71581 19.06 7.13003 19.06H15.13C18.3042 19.06 20.88 16.4842 20.88 13.31C20.88 10.1358 18.3042 7.55998 15.13 7.55998H5.62056L6.96026 6.22027Z" fill="#9CA3AF"/>
</svg>
