<svg width="24" height="24" viewBox="0 0 24 24" fill="none" xmlns="http://www.w3.org/2000/svg">
<path d="M12.5254 5.97481C12.4547 5.90532 12.3735 5.85269 12.2871 5.81692C12.1987 5.78025 12.1017 5.76001 12 5.76001C11.8983 5.76001 11.8013 5.78025 11.7129 5.81692C11.6251 5.85325 11.5428 5.90697 11.4713 5.97809L12.2871 5.81692L11.4693 5.98L8.46967 8.97968C8.17678 9.27257 8.17678 9.74745 8.46967 10.0403C8.76256 10.3332 9.23744 10.3332 9.53033 10.0403L11.25 8.32067V14.51C11.25 14.9242 11.5858 15.26 12 15.26C12.4142 15.26 12.75 14.9242 12.75 14.51V8.32067L14.4697 10.0403C14.7626 10.3332 15.2374 10.3332 15.5303 10.0403C15.8232 9.74745 15.8232 9.27257 15.5303 8.97968L12.531 5.98035L12.5254 5.97481Z" fill="#9CA3AF"/>
<path d="M6.23772 15.7987C5.84486 15.6674 5.41996 15.8794 5.28867 16.2723C5.15738 16.6651 5.36942 17.0901 5.76228 17.2213C9.80657 18.5729 14.1934 18.5729 18.2377 17.2213C18.6306 17.0901 18.8426 16.6651 18.7113 16.2723C18.58 15.8794 18.1551 15.6674 17.7623 15.7987C14.0266 17.0471 9.97343 17.0471 6.23772 15.7987Z" fill="#9CA3AF"/>
<path fill-rule="evenodd" clip-rule="evenodd" d="M9 1.25C6.42603 1.25 4.42914 1.7602 3.09467 3.09467C1.7602 4.42914 1.25 6.42603 1.25 9V15C1.25 17.574 1.7602 19.5709 3.09467 20.9053C4.42914 22.2398 6.42603 22.75 9 22.75H15C17.574 22.75 19.5709 22.2398 20.9053 20.9053C22.2398 19.5709 22.75 17.574 22.75 15V9C22.75 6.42603 22.2398 4.42914 20.9053 3.09467C19.5709 1.7602 17.574 1.25 15 1.25H9ZM2.75 9C2.75 6.57397 3.2398 5.07086 4.15533 4.15533C5.07086 3.2398 6.57397 2.75 9 2.75H15C17.426 2.75 18.9291 3.2398 19.8447 4.15533C20.7602 5.07086 21.25 6.57397 21.25 9V15C21.25 17.426 20.7602 18.9291 19.8447 19.8447C18.9291 20.7602 17.426 21.25 15 21.25H9C6.57397 21.25 5.07086 20.7602 4.15533 19.8447C3.2398 18.9291 2.75 17.426 2.75 15V9Z" fill="#9CA3AF"/>
</svg>
