<svg width="36" height="36" viewBox="0 0 36 36" fill="none" xmlns="http://www.w3.org/2000/svg">
<path d="M21.375 4.5C21.375 5.12132 21.8787 5.625 22.5 5.625H28.784L19.4545 14.9545C19.0152 15.3938 19.0152 16.1062 19.4545 16.5455C19.8938 16.9848 20.6062 16.9848 21.0455 16.5455L30.375 7.21599V13.5C30.375 14.1213 30.8787 14.625 31.5 14.625C32.1213 14.625 32.625 14.1213 32.625 13.5V4.5C32.625 4.34746 32.5946 4.20201 32.5396 4.06937C32.486 3.93969 32.407 3.81802 32.3028 3.71188L32.2881 3.69719C32.0851 3.49791 31.8069 3.375 31.5 3.375H22.5C21.8787 3.375 21.375 3.87868 21.375 4.5Z" fill="#9CA3AF"/>
<path d="M5.625 28.784V22.5C5.625 21.8787 5.12132 21.375 4.5 21.375C3.87868 21.375 3.375 21.8787 3.375 22.5V31.5C3.375 31.8069 3.49791 32.0851 3.69719 32.2881C3.70205 32.2931 3.70694 32.298 3.71188 32.3028C3.81802 32.407 3.93969 32.486 4.06937 32.5396C4.20201 32.5946 4.34746 32.625 4.5 32.625H13.5C14.1213 32.625 14.625 32.1213 14.625 31.5C14.625 30.8787 14.1213 30.375 13.5 30.375H7.21599L16.5455 21.0455C16.9848 20.6062 16.9848 19.8938 16.5455 19.4545C16.1062 19.0152 15.3938 19.0152 14.9545 19.4545L5.625 28.784Z" fill="#9CA3AF"/>
</svg>
